<svg
  width="39"
  height="39"
  viewBox="0 0 39 39"
  fill="none"
  xmlns="http://www.w3.org/2000/svg"
>
  <circle
    class="color-element"
    cx="19.5"
    cy="19.5"
    r="19.5"
    fill="url(#linear-gradient)"
  ></circle>
  <path
    id="Path_1923"
    data-name="Path 1923"
    d="M13.177,0H5.022A5.028,5.028,0,0,0,0,5.022v8.155A5.028,5.028,0,0,0,5.022,18.2h8.155A5.028,5.028,0,0,0,18.2,13.177V5.022A5.028,5.028,0,0,0,13.177,0Zm3.408,13.177a3.412,3.412,0,0,1-3.408,3.408H5.022a3.411,3.411,0,0,1-3.408-3.408V5.022A3.412,3.412,0,0,1,5.022,1.615h8.155a3.412,3.412,0,0,1,3.408,3.408v8.155Z"
    transform="translate(10 10.4)"
    fill="#fff"
  ></path>
  <path
    id="Path_1924"
    data-name="Path 1924"
    d="M45.658,40.97a4.689,4.689,0,1,0,4.69,4.69A4.695,4.695,0,0,0,45.658,40.97Zm0,7.764a3.075,3.075,0,1,1,3.075-3.075A3.078,3.078,0,0,1,45.658,48.734Z"
    transform="translate(-26.558 -26.159)"
    fill="#fff"
  ></path>
</svg>
