<svg
  version="1.1"
  xmlns="http://www.w3.org/2000/svg"
  xmlns:xlink="http://www.w3.org/1999/xlink"
  x="0px"
  y="0px"
  viewBox="-496 507.7 54 54"
  style="enable-background-color: new -496 507.7 54 54"
  xml:space="preserve"
>
  <style type="text/css">
    .chaty-sts4-0 {
      fill: #ffffff;
    }
    .chaty-st0 {
      fill: #808080;
    }
  </style>
  <g><circle cx="-469" cy="534.7" r="27" fill="rgb(15, 66, 246)"></circle></g>
  <path
    class="chaty-sts4-0"
    d="M-459.9,523.7h-20.3c-1.9,0-3.4,1.5-3.4,3.4v15.3c0,1.9,1.5,3.4,3.4,3.4h11.4l5.9,4.9c0.2,0.2,0.3,0.2,0.5,0.2 h0.3c0.3-0.2,0.5-0.5,0.5-0.8v-4.2h1.7c1.9,0,3.4-1.5,3.4-3.4v-15.3C-456.5,525.2-458,523.7-459.9,523.7z"
  ></path>
  <path
    class="chaty-st0"
    d="M-477.7,530.5h11.9c0.5,0,0.8,0.4,0.8,0.8l0,0c0,0.5-0.4,0.8-0.8,0.8h-11.9c-0.5,0-0.8-0.4-0.8-0.8l0,0C-478.6,530.8-478.2,530.5-477.7,530.5z"
  ></path>
  <path
    class="chaty-st0"
    d="M-477.7,533.5h7.9c0.5,0,0.8,0.4,0.8,0.8l0,0c0,0.5-0.4,0.8-0.8,0.8h-7.9c-0.5,0-0.8-0.4-0.8-0.8l0,0C-478.6,533.9-478.2,533.5-477.7,533.5z"
  ></path>
</svg>
