<svg
  width="39"
  height="39"
  viewBox="0 0 39 39"
  fill="none"
  xmlns="http://www.w3.org/2000/svg"
>
  <circle
    class="color-element"
    cx="19.4395"
    cy="19.4395"
    r="19.4395"
    fill="#3E99D8"
  ></circle>
  <path
    d="M3.56917 -2.55497e-07L0 6.42978L7.5349 1.87535L3.56917 -2.55497e-07Z"
    transform="translate(13.9704 24.6145)"
    fill="#E0E0E0"
  ></path>
  <path
    d="M20.8862 0.133954C20.754 0 20.4897 0 20.2253 0L0.396574 8.03723C0.132191 8.17118 0 8.43909 0 8.707C0 8.97491 0.132191 9.24282 0.396574 9.37677L17.5814 17.414C17.7136 17.414 17.7136 17.414 17.8458 17.414C17.978 17.414 18.1102 17.414 18.1102 17.28C18.2424 17.1461 18.3746 17.0121 18.5068 16.7442L21.1506 0.669769C21.1506 0.535815 21.1506 0.267908 20.8862 0.133954Z"
    transform="translate(7.36069 10.9512)"
    fill="white"
  ></path>
  <path
    d="M13.8801 0L0 11.52V19.4233L3.70136 13.2614L13.8801 0Z"
    transform="translate(13.9704 11.6208)"
    fill="#F2F2F2"
  ></path>
</svg>
